<svg width="26" height="26" viewBox="0 0 26 26" fill="none" xmlns="http://www.w3.org/2000/svg">
<path d="M17.7071 16.2929C17.3166 15.9024 16.6834 15.9024 16.2929 16.2929C15.9024 16.6834 15.9024 17.3166 16.2929 17.7071L17.7071 16.2929ZM24.2929 25.7071C24.6834 26.0976 25.3166 26.0976 25.7071 25.7071C26.0976 25.3166 26.0976 24.6834 25.7071 24.2929L24.2929 25.7071ZM10.3333 18.6667C5.73096 18.6667 2 14.9357 2 10.3333H0C0 16.0403 4.62639 20.6667 10.3333 20.6667V18.6667ZM2 10.3333C2 5.73096 5.73096 2 10.3333 2V0C4.62639 0 0 4.62639 0 10.3333H2ZM10.3333 2C14.9357 2 18.6667 5.73096 18.6667 10.3333H20.6667C20.6667 4.62639 16.0403 0 10.3333 0V2ZM18.6667 10.3333C18.6667 14.9357 14.9357 18.6667 10.3333 18.6667V20.6667C16.0403 20.6667 20.6667 16.0403 20.6667 10.3333H18.6667ZM16.2929 17.7071L24.2929 25.7071L25.7071 24.2929L17.7071 16.2929L16.2929 17.7071Z" fill="rgb(107 114 128)"/>
</svg>
